<?xml version="1.0" standalone="no"?>
<!DOCTYPE svg PUBLIC "-//W3C//DTD SVG 20010904//EN"
 "http://www.w3.org/TR/2001/REC-SVG-20010904/DTD/svg10.dtd">
<svg version="1.0" xmlns="http://www.w3.org/2000/svg"
 width="132.000000pt" height="31.000000pt" viewBox="0 0 132.000000 31.000000"
 preserveAspectRatio="xMidYMid meet">

<g transform="translate(0.000000,31.000000) scale(0.100000,-0.100000)"
fill="#000000" stroke="none">
<path d="M21 206 c-7 -8 -11 -34 -9 -58 3 -36 7 -44 31 -52 36 -13 61 2 65 38
3 22 0 26 -22 26 -14 0 -26 -4 -26 -10 0 -5 5 -10 10 -10 6 0 10 -7 10 -15 0
-18 -21 -20 -38 -3 -14 14 -15 47 -2 68 8 12 13 13 30 3 30 -20 43 -17 30 7
-13 24 -62 27 -79 6z"/>
<path d="M130 156 c0 -37 4 -66 10 -66 6 0 10 9 10 19 0 22 22 41 27 24 2 -6
10 -19 18 -29 17 -24 33 -9 17 16 -10 16 -10 24 0 40 19 29 -1 54 -46 58 l-36
3 0 -65z m65 24 c0 -8 -10 -16 -22 -18 -22 -3 -32 16 -16 32 12 11 38 2 38
-14z"/>
<path d="M240 155 l0 -65 39 0 c22 0 43 4 46 10 4 6 -7 10 -24 10 -24 0 -31 4
-31 20 0 15 7 20 25 20 14 0 25 5 25 10 0 6 -11 10 -25 10 -16 0 -25 6 -25 15
0 10 10 15 30 15 17 0 30 5 30 10 0 6 -20 10 -45 10 l-45 0 0 -65z"/>
<path d="M340 155 l0 -65 39 0 c22 0 43 4 46 10 4 6 -7 10 -24 10 -24 0 -31 4
-31 20 0 15 7 20 25 20 14 0 25 5 25 10 0 6 -11 10 -25 10 -16 0 -25 6 -25 15
0 10 10 15 31 15 17 0 28 4 24 10 -3 6 -24 10 -46 10 l-39 0 0 -65z"/>
<path d="M440 154 c0 -48 3 -65 13 -62 6 3 14 20 17 39 l5 34 22 -37 c12 -21
27 -38 33 -38 6 0 10 27 10 65 0 72 -17 90 -22 23 l-3 -43 -23 43 c-34 64 -52
56 -52 -24z"/>
<path d="M581 159 c-23 -61 -21 -89 3 -56 17 22 45 22 62 0 24 -33 26 -5 3 56
-12 34 -27 61 -34 61 -7 0 -22 -27 -34 -61z m49 -11 c0 -5 -7 -8 -15 -8 -17 0
-18 2 -9 25 5 13 8 14 15 3 5 -7 9 -16 9 -20z"/>
<path d="M672 208 c3 -7 13 -37 22 -65 10 -29 24 -53 31 -53 7 0 21 24 31 53
9 28 19 58 22 65 2 6 -3 12 -11 12 -9 0 -19 -18 -27 -47 l-13 -48 -15 48 c-9
27 -22 47 -30 47 -8 0 -12 -6 -10 -12z"/>
<path d="M800 155 c0 -37 4 -65 10 -65 6 0 10 28 10 65 0 37 -4 65 -10 65 -6
0 -10 -28 -10 -65z"/>
<path d="M900 201 c-25 -47 -2 -111 39 -111 19 0 41 19 41 34 0 6 -5 3 -11 -6
-23 -40 -69 -10 -69 44 0 45 49 66 69 31 6 -10 11 -13 11 -7 1 34 -63 46 -80
15z"/>
<path d="M1021 159 c-13 -33 -20 -63 -18 -66 3 -2 8 5 12 16 9 29 61 29 70 0
4 -11 9 -19 11 -16 6 6 -39 127 -47 127 -3 0 -16 -27 -28 -61z m39 22 c0 -5 3
-16 6 -25 4 -12 0 -16 -15 -16 -22 0 -25 8 -15 34 7 17 24 22 24 7z"/>
<path d="M1127 213 c-18 -17 -5 -44 28 -60 22 -10 35 -23 33 -32 -5 -23 -36
-25 -59 -5 -10 9 -19 12 -19 6 0 -18 40 -34 67 -27 36 9 27 46 -15 64 -20 9
-32 21 -30 30 5 23 40 26 55 5 7 -10 13 -13 13 -8 0 26 -54 46 -73 27z"/>
<path d="M1228 214 c-12 -11 -10 -114 2 -114 6 0 10 11 10 25 0 22 4 25 34 25
32 0 35 -3 39 -32 2 -18 4 -1 4 37 0 44 -2 59 -6 40 -5 -25 -12 -31 -38 -33
-29 -3 -32 -1 -35 28 -2 18 -6 28 -10 24z"/>
</g>
</svg>
